<svg id="_6351969_eye_key_look_password_security_icon" data-name="6351969_eye_key_look_password_security_icon" xmlns="http://www.w3.org/2000/svg" width="15" height="10" viewBox="0 0 15 10">
  <path id="Path_98" data-name="Path 98" d="M14.192,12.825a2.336,2.336,0,0,0,.2-.767,2.212,2.212,0,1,0-4.42,0,2.192,2.192,0,0,0,3.95,1.225A2.328,2.328,0,0,0,14.192,12.825Zm-2.008.189a1.076,1.076,0,0,0,.723-.281,1.049,1.049,0,0,0,.337-.675,1.094,1.094,0,0,0-1.06-1.153,1.133,1.133,0,0,0-1.11,1.152A1.11,1.11,0,0,0,12.184,13.014Z" transform="translate(-4.656 -7.073)" fill="#c4c4c4" fill-rule="evenodd"/>
  <path id="Path_99" data-name="Path 99" d="M1.053,10.66h0a.268.268,0,0,1,0-.321l.016-.023C3.181,7.172,5.8,5.5,8.508,5.5s5.322,1.668,7.432,4.806A.333.333,0,0,1,16,10.5a.352.352,0,0,1-.066.2c-2.109,3.132-4.724,4.8-7.426,4.8S3.168,13.82,1.053,10.66ZM2.7,10.119a.621.621,0,0,0,0,.761c1.809,2.293,3.845,3.37,5.813,3.37s4-1.077,5.813-3.37a.621.621,0,0,0,0-.761C12.512,7.826,10.476,6.75,8.508,6.75S4.5,7.826,2.7,10.119Z" transform="translate(-1 -5.5)" fill="#c4c4c4" fill-rule="evenodd"/>
</svg>
