<svg xmlns="http://www.w3.org/2000/svg" width="14" height="17.613" viewBox="0 0 14 17.613">
  <path id="lock-Regular_1_" d="M698.54,1018.882v-2.342a4.29,4.29,0,0,0-8.581,0v2.343a4.289,4.289,0,0,0-2.71,3.98v2.71a4.3,4.3,0,0,0,4.29,4.29h5.419a4.3,4.3,0,0,0,4.29-4.29v-2.71A4.291,4.291,0,0,0,698.54,1018.882Zm-7.226-2.342a2.935,2.935,0,0,1,5.871,0v2.055c-.077,0-.148-.023-.226-.023H691.54c-.078,0-.149.019-.226.023Zm8.581,9.032a2.939,2.939,0,0,1-2.936,2.936H691.54a2.939,2.939,0,0,1-2.935-2.936v-2.71a2.939,2.939,0,0,1,2.935-2.935h5.419a2.939,2.939,0,0,1,2.936,2.935Zm-4.968-1.806v.9a.677.677,0,1,1-1.355,0v-.9a.677.677,0,1,1,1.355,0Z" transform="translate(-687.25 -1012.25)" fill="#c4c4c4"/>
</svg>
